<svg width="63" height="18" viewBox="0 0 63 18" fill="none" xmlns="http://www.w3.org/2000/svg">
<path d="M-0.000266343 3.04266V4.3869e-05H14.335V3.04266H8.99121V17.4546H5.34348V3.04266H-0.000266343ZM20.695 17.7103C19.3485 17.7103 18.1894 17.4375 17.2178 16.8921C16.2519 16.341 15.5075 15.5625 14.9848 14.5569C14.4621 13.5455 14.2007 12.3495 14.2007 10.9688C14.2007 9.6222 14.4621 8.44039 14.9848 7.42334C15.5075 6.40629 16.2433 5.61368 17.1922 5.0455C18.1468 4.47732 19.2661 4.19323 20.5502 4.19323C21.4138 4.19323 22.2178 4.33243 22.9621 4.61084C23.7121 4.88357 24.3655 5.2955 24.9223 5.84664C25.4848 6.39777 25.9223 7.09095 26.2348 7.92618C26.5473 8.75573 26.7036 9.72732 26.7036 10.841V11.8381H15.6496V9.58811H23.286C23.286 9.06539 23.1723 8.60232 22.945 8.19891C22.7178 7.7955 22.4024 7.48016 21.999 7.25289C21.6013 7.01993 21.1382 6.90345 20.6098 6.90345C20.0587 6.90345 19.57 7.03129 19.1439 7.28698C18.7235 7.53698 18.3939 7.87504 18.1553 8.30118C17.9166 8.72163 17.7945 9.19038 17.7888 9.70743V11.8466C17.7888 12.4944 17.9081 13.054 18.1468 13.5256C18.3911 13.9972 18.7348 14.3608 19.178 14.6165C19.6212 14.8722 20.1468 15 20.7547 15C21.1581 15 21.5274 14.9432 21.8627 14.8296C22.1979 14.716 22.4848 14.5455 22.7235 14.3182C22.9621 14.091 23.1439 13.8125 23.2689 13.483L26.6269 13.7046C26.4564 14.5114 26.107 15.216 25.5786 15.8182C25.0558 16.4148 24.3797 16.8807 23.5502 17.216C22.7263 17.5455 21.7746 17.7103 20.695 17.7103ZM34.9877 17.7103C33.6468 17.7103 32.4933 17.4262 31.5274 16.858C30.5672 16.2841 29.8286 15.4887 29.3115 14.4716C28.8002 13.4546 28.5445 12.2841 28.5445 10.9603C28.5445 9.61936 28.803 8.44323 29.32 7.43186C29.8428 6.41482 30.5843 5.6222 31.5445 5.05402C32.5047 4.48016 33.6468 4.19323 34.9706 4.19323C36.1127 4.19323 37.1127 4.40061 37.9706 4.81538C38.8286 5.23016 39.5075 5.81254 40.0075 6.56254C40.5075 7.31254 40.7831 8.19323 40.8343 9.20459H37.4081C37.3115 8.55118 37.0558 8.02561 36.6411 7.62789C36.232 7.22448 35.695 7.02277 35.0303 7.02277C34.4678 7.02277 33.9763 7.17618 33.5558 7.483C33.1411 7.78414 32.8172 8.22448 32.5843 8.80402C32.3513 9.38357 32.2348 10.0853 32.2348 10.9091C32.2348 11.7444 32.3485 12.4546 32.5757 13.0398C32.8087 13.625 33.1354 14.0711 33.5558 14.3779C33.9763 14.6847 34.4678 14.8381 35.0303 14.8381C35.445 14.8381 35.8172 14.7529 36.1468 14.5824C36.482 14.412 36.7575 14.1648 36.9735 13.841C37.195 13.5114 37.3399 13.1165 37.4081 12.6563H40.8343C40.7774 13.6563 40.5047 14.537 40.0161 15.2983C39.5331 16.054 38.8655 16.6449 38.0132 17.0711C37.161 17.4972 36.1524 17.7103 34.9877 17.7103ZM46.7895 9.88641V17.4546H43.1588V4.3869e-05H46.6872V6.67334H46.8406C47.1361 5.90061 47.6134 5.2955 48.2725 4.858C48.9316 4.41482 49.7583 4.19323 50.7526 4.19323C51.6617 4.19323 52.4543 4.39209 53.1304 4.78982C53.8122 5.18186 54.3406 5.7472 54.7156 6.48584C55.0963 7.21879 55.2838 8.09664 55.2781 9.11936V17.4546H51.6475V9.76709C51.6531 8.96027 51.4486 8.33243 51.0338 7.88357C50.6247 7.4347 50.0509 7.21027 49.3122 7.21027C48.8179 7.21027 48.3804 7.31539 47.9997 7.52561C47.6247 7.73584 47.3293 8.04266 47.1134 8.44607C46.9031 8.84379 46.7952 9.32391 46.7895 9.88641ZM60.2575 17.6762C59.695 17.6762 59.2121 17.4773 58.8087 17.0796C58.411 16.6762 58.2121 16.1932 58.2121 15.6307C58.2121 15.0739 58.411 14.5966 58.8087 14.1989C59.2121 13.8012 59.695 13.6023 60.2575 13.6023C60.803 13.6023 61.2803 13.8012 61.6894 14.1989C62.0985 14.5966 62.303 15.0739 62.303 15.6307C62.303 16.0057 62.2064 16.3495 62.0132 16.662C61.8257 16.9688 61.5786 17.216 61.2718 17.4035C60.9649 17.5853 60.6269 17.6762 60.2575 17.6762Z" fill="#FDFDFD"/>
</svg>
